<?xml version="1.0" encoding="UTF-8" standalone="no"?>
<!-- Created with Inkscape (http://www.inkscape.org/) -->

<svg
   width="48.903278mm"
   height="7.8995986mm"
   viewBox="0 0 48.903278 7.8995986"
   version="1.1"
   id="svg1"
   xmlns="http://www.w3.org/2000/svg">
  <defs
     id="defs1" />
  <g
     id="layer1"
     transform="translate(-27.626737,-225.4865)">
    <g
       id="g48"
       transform="translate(0,23.812499)">
      <path
         id="text3"
         style="font-size:10.7121px;text-align:start;writing-mode:lr-tb;direction:ltr;text-anchor:start;fill:#000000;stroke-width:0.892674"
         d="m 39.84563,202.39746 c -0.188298,1.15595 -0.423766,2.354 -0.680062,3.54656 -0.313831,1.48023 -0.65409,2.95519 -0.837158,3.57239 h 1.647962 c 0.07846,-0.60151 0.360609,-2.05049 0.669209,-3.51503 0.313832,-1.46455 0.654028,-2.94442 0.842326,-3.59823 z m -10.712524,0.0315 c -0.120302,0.75842 -0.302893,1.65842 -0.512114,2.63653 -0.376597,1.77314 -0.842569,3.8076 -0.994254,4.44572 h 1.53789 l 0.05788,-0.293 0.03101,-0.27699 c 0.287678,0.35568 0.570512,0.57516 1.172021,0.57516 h 0.01034 c 1.673765,0 2.87656,-1.68929 3.242696,-3.41013 0.387058,-1.81499 -0.156885,-3.67213 -2.066024,-3.67213 z m 13.803808,0.0837 c -0.455055,0 -0.889581,0.24067 -0.999422,0.76895 l -0.0052,0.0103 c -0.104611,0.52829 0.214608,0.77412 0.674894,0.77412 0.460285,0 0.873436,-0.2563 0.993738,-0.77412 l 0.0052,-0.0207 c 0.109841,-0.50736 -0.214155,-0.75861 -0.66921,-0.75861 z m -12.658142,1.28675 1.077454,0.0212 c 0.978107,0.0262 1.161352,1.15029 0.931209,2.22777 -0.214451,1.00949 -0.76901,1.97714 -1.752348,1.97714 h -1.108976 c 0.104611,-0.53874 0.230393,-1.15562 0.366386,-1.78852 l 0.05736,-0.26665 c 0.135993,-0.64335 0.271999,-1.4125 0.428914,-2.17092 z m 22.358842,0.33899 c -0.06595,-9e-4 -0.138309,9.7e-4 -0.218074,0.006 -1.443623,0.14123 -2.165333,1.71019 -2.243791,1.77819 l -0.115238,-0.094 c 0.183068,-0.38706 0.664181,-0.93628 0.695564,-1.03043 0.151685,-0.47075 0.05269,-0.16193 0.183452,-0.5333 h -1.705322 c -0.266757,1.52208 -0.486219,2.77233 -0.705901,3.8132 -0.120301,0.55444 -0.235811,1.0511 -0.350883,1.43816 h 1.559078 c 0.01569,-0.14646 0.135727,-1.13512 0.36587,-2.05569 0.360905,-1.40178 0.758335,-1.98756 2.672705,-1.85157 l 0.31936,-1.39629 c -0.117687,-0.0431 -0.258959,-0.0717 -0.45682,-0.0744 z m -15.642972,0.0481 c -0.06277,0 -0.130441,-6e-5 -0.198438,0.005 -1.532542,0.0941 -2.604777,1.4331 -2.881995,2.75642 -0.282448,1.32332 0.229855,2.62568 1.872238,2.62568 h 0.05788 c 1.318091,-0.0209 1.919206,-0.59073 2.138888,-0.79995 l 0.240809,-1.02509 c -0.512591,0.41844 -1.07743,0.59118 -1.595252,0.59118 -0.643353,0 -1.197755,-0.31396 -1.077453,-1.36529 l 2.902665,-0.0103 0.03152,-0.14159 c 0.266756,-1.24487 0.156748,-2.63602 -1.490865,-2.63602 z m 18.657259,0.0212 c -1.673766,0.0105 -2.698905,1.1977 -3.012736,2.6727 -0.313831,1.48024 0.246,2.64126 1.877921,2.67788 h 0.0677 c 0.888317,0 1.604938,-0.37792 2.118734,-0.9648 H 56.6043 v -3.33106 h 0.870748 c -0.247288,-0.64014 -0.825187,-1.05472 -1.801957,-1.05472 z m -8.520411,0.0155 c -0.486438,1.15072 -1.438447,3.54085 -1.543058,4.05867 h -0.08888 c 0.130763,-0.51259 0.08906,-3.30554 0.03152,-4.0535 h -1.543058 c 0.02092,0.11507 0.272209,4.1478 0.28267,5.28805 h 1.90376 c 0.538743,-1.21871 2.364036,-5.12067 2.463415,-5.28805 z m -5.434293,0.0315 -0.05788,0.37621 c -0.09415,0.62766 -0.250623,1.44902 -0.42323,2.26498 -0.214451,1.00426 -0.455136,2.00331 -0.638204,2.62051 h 1.731161 c 0.07846,-0.60151 0.261489,-1.58996 0.47594,-2.58899 0.20922,-0.99903 0.449842,-2.00856 0.643371,-2.66237 z m -4.828129,0.54881 h 0.03152 c 0.439364,0 0.38205,0.81639 0.28267,1.29759 -0.04054,0.18749 -0.09156,0.32588 -0.113688,0.33435 h -5.16e-4 -5.17e-4 -5.17e-4 -1.412317 c 0.240604,-0.86827 0.758308,-1.59533 1.213363,-1.63194 z m 18.531685,0.59118 h 0.0057 c 0.643353,0 0.794791,0.6749 0.622184,1.49086 -0.172607,0.8055 -0.622517,1.48518 -1.239718,1.48518 h -0.02067 c -0.627662,-0.0209 -0.805644,-0.66922 -0.633037,-1.48518 0.177838,-0.82119 0.611741,-1.4804 1.265556,-1.49086 z" />
      <path
         id="text7"
         style="font-size:10.7121px;text-align:start;writing-mode:lr-tb;direction:ltr;text-anchor:start;fill:#000000;stroke:none;stroke-width:0.168695;stroke-dasharray:none;stroke-opacity:1"
         d="m 58.260527,204.20769 c -1.673766,0.0105 -2.698905,1.1977 -3.012736,2.6727 -0.313831,1.48024 0.246,2.64126 1.877921,2.67788 h 0.0677 c 0.941532,0 1.689921,-0.42436 2.20865,-1.07229 h -0.379821 v -3.30832 h 1.026293 c -0.264719,-0.59163 -0.83398,-0.96997 -1.766817,-0.96997 z m -0.251148,1.18701 h 0.0057 c 0.643354,0 0.794791,0.6749 0.622184,1.49086 -0.172607,0.8055 -0.622516,1.48518 -1.239717,1.48518 h -0.02067 c -0.627662,-0.0209 -0.805643,-0.66922 -0.633036,-1.48518 0.177837,-0.82119 0.611741,-1.4804 1.265555,-1.49086 z" />
      <path
         id="text23"
         style="font-size:10.7121px;text-align:start;writing-mode:lr-tb;direction:ltr;text-anchor:start;fill:#000000;stroke-width:0.892674"
         d="m 66.295695,204.20924 0.03566,0.0775 -1.907377,0.87178 -0.132809,-0.28991 c -0.415269,0.34791 -0.728953,0.81209 -0.936894,1.34049 0.03976,-0.016 0.0786,-0.0318 0.116272,-0.047 0.356811,-0.14415 0.618841,-0.2525 0.673861,-0.2775 0.242178,-0.11008 0.432243,-0.20046 0.724504,-0.34365 0.280056,-0.13722 0.660995,-0.38413 0.980818,-0.58963 0.159912,-0.10275 0.304712,-0.19663 0.415996,-0.25993 0.05564,-0.0316 0.103277,-0.0547 0.142627,-0.0703 0.01968,-0.008 0.03712,-0.0146 0.05633,-0.0176 v -5.1e-4 c 0.01921,-0.003 0.04608,-0.004 0.07235,0.0196 0.0072,0.007 0.05003,0.0417 0.07648,0.0956 0.02644,0.0539 0.03216,0.13836 -0.02377,0.21136 a 0.06,0.06 0 0 1 -0.08372,0.0114 0.06,0.06 0 0 1 -0.01189,-0.0837 c 0.03123,-0.0407 0.02462,-0.0603 0.01189,-0.0863 -0.0095,-0.0194 -0.0245,-0.0322 -0.03721,-0.0444 -0.0053,0.002 -0.0088,0.002 -0.01757,0.006 -0.02933,0.0117 -0.07385,0.0343 -0.127124,0.0646 -0.10655,0.0606 -0.250658,0.15115 -0.410311,0.25373 -0.319305,0.20516 -0.699641,0.45456 -0.992187,0.5979 -0.292775,0.14344 -0.482849,0.23517 -0.726054,0.34571 -0.06632,0.0301 -0.322946,0.13479 -0.680062,0.27906 -0.06905,0.0279 -0.141892,0.0574 -0.217558,0.0879 -0.05841,0.16789 -0.106344,0.34153 -0.144177,0.51935 -0.313831,1.48024 0.245999,2.64125 1.877921,2.67787 h 0.06821 c 1.595308,0 2.635922,-1.21855 2.944523,-2.67787 0.208438,-0.97618 0.05449,-1.8346 -0.559655,-2.30116 -0.156574,0.26397 -0.490731,0.85389 -0.807186,1.41594 -0.02569,0.0456 -0.05107,0.0908 -0.07648,0.13591 0.02154,0.22206 1.2e-4,0.4803 -0.05788,0.75447 -0.172607,0.8055 -0.622517,1.48518 -1.239718,1.48518 h -0.02067 c -0.627662,-0.0209 -0.805643,-0.66922 -0.633036,-1.48518 0.177838,-0.82119 0.612257,-1.4804 1.266072,-1.49086 h 0.0052 c 0.362976,0 0.569616,0.21501 0.649573,0.5488 0.0013,-0.002 0.0023,-0.004 0.0036,-0.007 0.320215,-0.56872 0.653479,-1.16035 0.811837,-1.42678 -0.278584,-0.179 -0.639629,-0.28609 -1.090373,-0.30076 z m 5.650818,0.009 c -0.350444,0 -1.380973,0.0995 -1.924947,1.2764 l -0.109554,-0.0946 c 0.183068,-0.43936 0.423675,-0.65906 0.601513,-0.81598 0.04707,-0.14645 0.06274,-0.18285 0.130742,-0.31884 l -1.642277,-0.005 -0.06821,0.42891 c -0.125532,0.74796 -0.282726,1.56884 -0.450102,2.34818 -0.203991,0.96242 -0.423613,1.86224 -0.606681,2.47944 h 1.647961 c 0.03661,-0.2563 0.130796,-1.01998 0.298173,-1.8464 l 0.01034,-0.0419 c 0.360906,-1.70515 0.8736,-2.62051 1.496032,-2.62051 h 0.02067 c 0.70089,0.0262 0.58076,0.98335 0.329695,2.1916 l -0.04186,0.20412 c -0.156916,0.75319 -0.345066,1.50108 -0.528134,2.11305 h 1.647445 c 0.04184,-0.32952 0.141006,-1.1351 0.318844,-1.97198 0.261526,-1.21348 0.653724,-2.48964 1.297078,-2.5001 0.753194,0 0.633205,0.8682 0.361218,2.15491 l -0.04186,0.20929 c -0.156916,0.74796 -0.345127,1.49591 -0.522965,2.10788 h 1.642277 c 0.04185,-0.34521 0.120371,-0.73246 0.20929,-1.14567 0.120302,-0.55966 0.261397,-1.15574 0.397391,-1.73633 l 0.03152,-0.12557 c 0.355676,-1.68423 -0.539023,-2.28558 -1.438672,-2.29082 h -0.03101 c -0.80027,0 -1.381016,0.42365 -1.663464,0.90486 -0.214451,-0.63812 -0.76358,-0.89962 -1.338937,-0.90486 z" />
      <path
         id="text9"
         style="font-size:10.7121px;text-align:start;writing-mode:lr-tb;direction:ltr;text-anchor:start;fill:#000000;stroke:none;stroke-width:0.168695;stroke-dasharray:none;stroke-opacity:1"
         d="m 60.903259,204.20769 c -1.673765,0.0105 -2.698905,1.1977 -3.012736,2.67271 -0.313831,1.48023 0.245484,2.64125 1.877405,2.67787 h 0.06821 c 1.595308,0 2.635923,-1.21856 2.944523,-2.67787 0.02422,-0.11342 0.04359,-0.22558 0.05788,-0.33538 -0.190969,0.0763 -0.389946,0.15549 -0.588595,0.23409 -0.369709,0.14629 -0.73767,0.29053 -1.050582,0.41083 -0.211048,0.66532 -0.62153,1.1808 -1.159102,1.1808 h -0.02119 c -0.627663,-0.0209 -0.805644,-0.66922 -0.633037,-1.48518 0.177838,-0.82119 0.612258,-1.4804 1.266073,-1.49086 h 0.0052 c 0.643354,0 0.794792,0.6749 0.622185,1.49086 -0.01158,0.054 -0.0242,0.10748 -0.03824,0.1602 0.292846,-0.11319 0.62748,-0.2447 0.963766,-0.37775 0.219426,-0.0868 0.439363,-0.17426 0.648539,-0.25787 0.06158,-0.66003 -0.06718,-1.23847 -0.42168,-1.63659 -0.185412,0.24674 -0.365231,0.4971 -0.498161,0.69711 -0.06807,0.10241 -0.122807,0.19263 -0.160197,0.25993 -0.0187,0.0336 -0.03449,0.0618 -0.04289,0.0822 -0.0061,0.0149 -0.0069,0.0267 -0.0072,0.0274 h -5.17e-4 c 7.26e-4,0.0114 2.46e-4,0.0189 0,0.0269 0.0084,0.004 0.01723,0.01 0.03669,0.0176 a 0.06,0.06 0 0 1 0.03152,0.0801 0.06,0.06 0 0 1 -0.07803,0.0315 c -0.02475,-0.0106 -0.04163,-0.0173 -0.05684,-0.0253 -0.0152,-0.008 -0.03374,-0.0207 -0.04496,-0.0434 -0.0112,-0.0227 -0.0082,-0.0406 -0.0078,-0.0506 4.9e-4,-0.01 0.0012,-0.0169 0,-0.0295 -0.0032,-0.0341 0.0063,-0.0543 0.01757,-0.0816 0.01129,-0.0272 0.02698,-0.058 0.04702,-0.0941 0.0401,-0.0722 0.09678,-0.1632 0.165882,-0.26716 0.13768,-0.20717 0.323214,-0.4653 0.513664,-0.71831 -0.316759,-0.30163 -0.785137,-0.47852 -1.423686,-0.47852 z" />
      <path
         id="path9"
         style="fill:#000000;fill-opacity:1;stroke:none;stroke-width:0.12;stroke-linecap:round;stroke-linejoin:round;stroke-dasharray:none;stroke-opacity:1"
         d="m 68.384973,201.67399 v 5.2e-4 c -0.08731,0.001 -0.175068,0.0614 -0.255798,0.14676 -0.08073,0.0855 -0.15194,0.19052 -0.20929,0.26562 -0.102614,0.13428 -0.177078,0.25388 -0.238228,0.34158 -0.03058,0.0438 -0.05771,0.0789 -0.08578,0.10749 -0.02807,0.0286 -0.05971,0.0543 -0.10542,0.0548 -1.338543,0.014 -2.208473,-0.0257 -3.480924,-0.0217 -0.01319,0 -0.01763,0.001 -0.03669,-0.004 -0.0024,-10e-4 -0.0095,-0.004 -0.0098,-0.004 -3.3e-4,0 -0.01167,-0.006 -0.01189,-0.006 -2.2e-4,-2e-4 -0.01539,-0.0174 -0.0155,-0.0176 -1e-4,-1e-4 -0.0098,-0.0308 -0.0098,-0.031 0,-2e-4 0.0056,-0.0292 0.0057,-0.0294 1.1e-4,-2e-4 0.01168,-0.0132 0.01189,-0.0134 2e-4,0 0.0074,-0.008 0.0078,-0.008 h 5.17e-4 c 0.0013,-8.9e-4 0.0038,-0.003 0.0052,-0.004 0.0144,-0.009 0.02072,-0.0104 0.03152,-0.0134 0.0108,-0.004 0.02406,-0.006 0.03876,-0.01 0.05878,-0.0154 0.151434,-0.0373 0.250114,-0.0625 0.09868,-0.0252 0.202726,-0.0545 0.281636,-0.0842 0.03946,-0.0149 0.07289,-0.0301 0.09353,-0.0429 0.01333,-0.008 0.01874,-0.0165 0.02015,-0.0176 9.98e-4,-0.0104 0.0026,-0.0326 0.0016,-0.0584 -0.0013,-0.0332 -0.0047,-0.0754 -0.01189,-0.11369 -0.0072,-0.0383 -0.01915,-0.0739 -0.03152,-0.0992 -0.01159,-0.0237 -0.02245,-0.0351 -0.02635,-0.0372 h -5.16e-4 c 0.0027,0.001 -0.04996,-0.006 -0.117306,-0.004 -0.06735,0.002 -0.158167,0.009 -0.261999,0.0176 -0.207662,0.0189 -0.471472,0.0522 -0.740007,0.0941 -0.268535,0.0419 -0.541464,0.0907 -0.761711,0.14418 -0.218834,0.0531 -0.391236,0.11832 -0.438732,0.15554 v 5.2e-4 c -10e-4,0.003 -0.01118,0.0219 -0.0124,0.0512 -0.0015,0.0361 0.0046,0.0844 0.01757,0.13074 0.01293,0.0463 0.03343,0.0899 0.05633,0.12092 0.02291,0.031 0.04635,0.0461 0.06666,0.0491 0.05201,0.007 0.178211,-0.0114 0.285254,-0.0331 0.05352,-0.0108 0.103237,-0.0204 0.142627,-0.0274 0.01969,-0.004 0.03683,-0.007 0.05271,-0.008 0.0079,-5.2e-4 0.01492,-0.001 0.02532,0 0.0052,0.001 0.01854,0.006 0.01964,0.006 5.6e-4,0 0.01303,0.007 0.01344,0.008 4.1e-4,3e-4 0.01526,0.0157 0.0155,0.016 4e-4,7e-4 0.0044,0.008 0.0062,0.0134 0.0018,0.005 0.0029,0.01 0.0036,0.014 0.0015,0.009 0.0029,0.0162 0.0021,0.0232 -0.0018,0.0129 -0.0059,0.023 -0.0098,0.031 -0.0078,0.0164 -0.01739,0.0284 -0.02739,0.0413 -0.01999,0.0257 -0.04356,0.0504 -0.05633,0.0641 -0.418146,0.46154 -1.15045,1.40769 -1.781286,2.27738 -0.315418,0.43484 -0.605779,0.85123 -0.818555,1.1777 -0.106388,0.16324 -0.192881,0.30347 -0.253731,0.41238 -0.06085,0.10891 -0.0942,0.19538 -0.0956,0.20878 -0.01206,0.11525 0.03319,0.24679 0.111105,0.34209 0.07789,0.0953 0.182613,0.15091 0.279053,0.14056 -0.0011,8e-5 0.02574,-0.005 0.05891,-0.016 0.03388,-0.0108 0.0797,-0.0269 0.134875,-0.0465 0.110363,-0.0393 0.259179,-0.0939 0.433565,-0.16019 0.348773,-0.13268 0.798604,-0.3091 1.251604,-0.48834 0.453,-0.17924 0.909261,-0.36177 1.266072,-0.50592 0.356811,-0.14415 0.618324,-0.2525 0.673344,-0.2775 0.242178,-0.11008 0.432759,-0.20046 0.72502,-0.34365 0.280056,-0.13722 0.660477,-0.38413 0.980302,-0.58963 0.159913,-0.10275 0.304713,-0.19663 0.415996,-0.25993 0.05564,-0.0316 0.103277,-0.0547 0.142627,-0.0703 0.01968,-0.008 0.03763,-0.0146 0.05684,-0.0176 0.01921,-0.003 0.04556,-0.004 0.07183,0.0196 5.3e-4,5e-4 0.01359,0.0169 0.01395,0.0176 4e-4,7e-4 0.0046,0.0126 0.0057,0.0176 0.0023,0.0106 0.0028,0.0183 0.0021,0.0253 -0.0014,0.0138 -0.0038,0.0241 -0.0078,0.0351 -0.008,0.0221 -0.02136,0.047 -0.03721,0.0765 -0.0317,0.059 -0.07958,0.13748 -0.138493,0.23048 -0.117825,0.18595 -0.280867,0.42988 -0.447518,0.68316 -0.16665,0.25329 -0.335771,0.51455 -0.466638,0.73432 -0.06543,0.10989 -0.122104,0.21006 -0.162264,0.29146 -0.04016,0.0814 -0.06411,0.14846 -0.06821,0.17776 -0.04748,0.34298 0.433299,0.53894 0.597896,0.33383 5.42e-4,-9.3e-4 0.01036,-0.0149 0.02119,-0.0331 0.01273,-0.0213 0.02941,-0.0516 0.05064,-0.0884 0.04246,-0.0736 0.101286,-0.17521 0.170016,-0.29663 0.137451,-0.24283 0.318385,-0.56307 0.503845,-0.89245 0.370919,-0.65878 0.759468,-1.34826 0.873332,-1.52756 0.07288,-0.11476 0.242077,-0.42351 0.443383,-0.77721 0.201306,-0.3537 0.434797,-0.75509 0.644406,-1.0666 0.02177,-0.0321 0.06036,-0.0361 0.08423,-0.0351 0.02387,0.002 0.04488,0.008 0.06821,0.016 0.04666,0.017 0.09934,0.0451 0.152446,0.076 0.05311,0.0309 0.106378,0.0641 0.150378,0.0956 0.044,0.0315 0.07611,0.0569 0.09922,0.0842 3.2e-4,4e-4 0.01171,0.0207 0.01189,0.0212 2e-4,5e-4 0.0038,0.011 0.0041,0.016 6e-4,0.01 -9.67e-4,0.0162 -0.0021,0.0212 -0.0023,0.0108 -0.0063,0.0194 -0.0098,0.0274 -0.0069,0.0161 -0.01641,0.0332 -0.02739,0.0527 -0.02197,0.039 -0.04985,0.0864 -0.07803,0.13488 -0.02818,0.0485 -0.05665,0.0978 -0.07235,0.13487 -0.007,0.0167 -0.01009,0.0287 -0.01189,0.0367 0.01186,0.0123 0.04577,0.0421 0.09405,0.0744 0.05333,0.0357 0.119549,0.0751 0.185519,0.10955 0.06597,0.0345 0.131704,0.0636 0.181384,0.0801 0.02484,0.009 0.04489,0.0145 0.05684,0.0155 6.47e-4,6e-5 9.77e-4,-1e-5 0.0016,0 0.0051,-0.007 0.0134,-0.0175 0.0217,-0.0295 0.01664,-0.0239 0.03946,-0.0562 0.06459,-0.0956 0.05028,-0.0788 0.111266,-0.18368 0.171566,-0.293 0.06029,-0.10931 0.11859,-0.22396 0.15813,-0.32246 0.03914,-0.0975 0.05681,-0.18356 0.05271,-0.21188 v -5.1e-4 c -0.003,-0.004 -0.01782,-0.0306 -0.04651,-0.061 -0.03337,-0.0353 -0.0829,-0.0793 -0.142627,-0.12712 -0.119463,-0.0957 -0.281738,-0.20981 -0.453202,-0.31626 -0.171464,-0.10645 -0.352308,-0.20606 -0.50953,-0.27906 -0.157221,-0.073 -0.295164,-0.11613 -0.355534,-0.11524 z m -2.578137,1.57924 c 0.264595,0.002 0.508023,0.006 0.693498,0.0119 0.09274,0.003 0.170737,0.007 0.230477,0.01 0.05975,0.003 0.09724,0.005 0.122989,0.0103 0.04235,0.008 0.07824,0.0142 0.107487,0.0212 0.02925,0.007 0.05226,0.0119 0.07803,0.0351 0.01288,0.0116 0.02619,0.0323 0.02739,0.0548 0.0012,0.0225 -0.0076,0.0419 -0.01602,0.0548 -0.01682,0.0258 -0.03736,0.0409 -0.06615,0.0625 -0.02509,0.0188 -0.06227,0.0393 -0.127124,0.0744 -0.06485,0.0351 -0.150678,0.0802 -0.251664,0.13281 -0.201972,0.10526 -0.464307,0.23935 -0.725021,0.37259 -0.260713,0.13324 -0.520934,0.26514 -0.724503,0.36948 -0.203569,0.10437 -0.356532,0.18521 -0.376722,0.19741 -0.02811,0.0171 -0.07117,0.0554 -0.132808,0.0718 -0.03082,0.008 -0.06988,0.01 -0.10542,-0.006 -0.03554,-0.0156 -0.06414,-0.0456 -0.08992,-0.0858 -0.03263,-0.0509 -0.0655,-0.13436 -0.10387,-0.24443 -0.03837,-0.11006 -0.07942,-0.24251 -0.116788,-0.3731 -0.03737,-0.13059 -0.07136,-0.25989 -0.09405,-0.36329 -0.01135,-0.0517 -0.02012,-0.0973 -0.02532,-0.13436 -0.0052,-0.037 -0.01187,-0.0603 -0.0021,-0.0961 0.01046,-0.0381 0.02111,-0.0686 0.04703,-0.0956 0.02593,-0.0271 0.06584,-0.0351 0.09767,-0.0351 0.41549,-0.0389 1.025673,-0.048 1.552877,-0.045 z m 3.622518,0.2713 c -2.78e-4,1.3e-4 -6.62e-4,3.1e-4 -0.001,5.1e-4 3.68e-4,-7e-5 7.57e-4,9e-5 0.001,0 z m -6.127275,0.14469 c 0.01599,-1.2e-4 0.03148,6.5e-4 0.04961,0.005 0.01813,0.004 0.03794,0.0121 0.05271,0.0253 0.01477,0.0131 0.02638,0.0279 0.03721,0.045 0.03835,0.0609 0.07455,0.15541 0.113171,0.26975 0.03862,0.11435 0.07768,0.24854 0.113171,0.37879 0.0355,0.13024 0.06811,0.25711 0.09198,0.35915 0.02387,0.10205 0.03849,0.17366 0.04289,0.21136 0.003,0.026 0.0048,0.0567 -0.0021,0.0894 -0.0069,0.0326 -0.02409,0.0692 -0.05839,0.094 -0.0252,0.0182 -0.05986,0.0365 -0.119372,0.0661 -0.05951,0.0297 -0.138987,0.0666 -0.230477,0.10955 -0.182978,0.086 -0.41794,0.19349 -0.652157,0.29662 -0.234216,0.10313 -0.468466,0.20187 -0.650606,0.27337 -0.09107,0.0358 -0.16848,0.0652 -0.22841,0.0842 -0.02996,0.01 -0.05418,0.0177 -0.07596,0.0217 -0.02178,0.004 -0.03419,0.0143 -0.07235,-0.002 -0.02475,-0.0106 -0.04163,-0.0173 -0.05684,-0.0253 -0.0152,-0.008 -0.03374,-0.0207 -0.04496,-0.0434 -0.0112,-0.0227 -0.0082,-0.0406 -0.0078,-0.0506 4.9e-4,-0.01 0.0012,-0.0169 0,-0.0295 -0.0032,-0.0341 0.0063,-0.0543 0.01757,-0.0816 0.01129,-0.0272 0.02698,-0.0579 0.04702,-0.094 0.0401,-0.0722 0.09678,-0.1632 0.165882,-0.26716 0.138194,-0.20794 0.324533,-0.46698 0.515731,-0.72089 0.191199,-0.2539 0.387086,-0.50167 0.544669,-0.6873 0.07879,-0.0928 0.147839,-0.17166 0.203089,-0.22686 0.02763,-0.0276 0.05062,-0.0493 0.07235,-0.0661 0.02174,-0.0168 0.03426,-0.0343 0.07855,-0.0336 0.02142,5e-4 0.03775,-3.9e-4 0.05374,-5.2e-4 z" />
    </g>
  </g>
</svg>
